<svg width="93" height="48" viewBox="0 0 93 48" fill="none" xmlns="http://www.w3.org/2000/svg">
<path d="M65.3914 10.2768H61.9637V16.5862C61.9637 17.1119 62.0951 17.4962 62.358 17.7388C62.6209 17.9815 63.0051 18.1231 63.5107 18.1635C64.0163 18.1837 64.6432 18.1736 65.3914 18.1332V21.6822C62.7018 21.9855 60.8009 21.7328 59.6887 20.9239C58.5967 20.115 58.0507 18.6691 58.0507 16.5862V10.2768H55.4116V6.51539H58.0507V3.45169L61.9637 2.26868V6.51539H65.3914V10.2768Z" fill="#1C1C1C"/>
<path d="M54.4487 3.78535C52.3051 3.62357 51.2333 4.48302 51.2333 6.36371V6.51538H54.4487V10.2767H51.2333V41.9748H47.3202V10.2767H45.1362V6.51538H47.3202V6.36371C47.3202 4.22013 47.9168 2.59222 49.1099 1.47999C50.3031 0.367756 52.0826 -0.117583 54.4487 0.0239732V3.78535Z" fill="#1C1C1C"/>
<path d="M38.8282 6.51525H42.7412V21.6821H38.8282V19.8924C37.6553 21.3686 36.0071 22.1067 33.8838 22.1067C31.8615 22.1067 30.1224 21.3383 28.6664 19.8014C27.2306 18.2443 26.5127 16.3433 26.5127 14.0987C26.5127 11.854 27.2306 9.96317 28.6664 8.42627C30.1224 6.86914 31.8615 6.09058 33.8838 6.09058C36.0071 6.09058 37.6553 6.82869 38.8282 8.30493V6.51525ZM31.6087 17.1927C32.3974 17.9814 33.3984 18.3757 34.6118 18.3757C35.8251 18.3757 36.8261 17.9814 37.6148 17.1927C38.4237 16.3838 38.8282 15.3525 38.8282 14.0987C38.8282 12.8449 38.4237 11.8236 37.6148 11.035C36.8261 10.2261 35.8251 9.82161 34.6118 9.82161C33.3984 9.82161 32.3974 10.2261 31.6087 11.035C30.8201 11.8236 30.4257 12.8449 30.4257 14.0987C30.4257 15.3525 30.8201 16.3838 31.6087 17.1927Z" fill="#1C1C1C"/>
<path d="M20.9648 9.12352C21.3288 8.15284 21.9254 7.42483 22.7545 6.9395C23.6038 6.45416 24.5442 6.21149 25.5755 6.21149V10.5795C24.3824 10.438 23.3106 10.6806 22.3601 11.3075C21.4299 11.9344 20.9648 12.9759 20.9648 14.4319V21.6817H17.0518V6.51482H20.9648V9.12352Z" fill="#1C1C1C"/>
<path d="M8.00808 22.1067C5.72295 22.1067 3.81193 21.3383 2.27502 19.8014C0.758341 18.2645 0 16.3636 0 14.0987C0 11.8337 0.758341 9.93284 2.27502 8.39593C3.81193 6.85903 5.72295 6.09058 8.00808 6.09058C9.48432 6.09058 10.8291 6.44447 12.0425 7.15225C13.2558 7.86004 14.1759 8.81049 14.8028 10.0036L11.4358 11.9753C11.1324 11.3484 10.6673 10.853 10.0404 10.489C9.43377 10.125 8.7462 9.94295 7.97775 9.94295C6.80485 9.94295 5.83417 10.3373 5.06572 11.126C4.29727 11.8944 3.91304 12.8853 3.91304 14.0987C3.91304 15.2918 4.29727 16.2827 5.06572 17.0714C5.83417 17.8398 6.80485 18.224 7.97775 18.224C8.76643 18.224 9.4641 18.0521 10.0708 17.7084C10.6977 17.3444 11.1628 16.8489 11.4661 16.222L14.8635 18.1634C14.1961 19.3565 13.2558 20.3171 12.0425 21.0451C10.8291 21.7529 9.48432 22.1067 8.00808 22.1067Z" fill="#1C1C1C"/>
<path d="M88.4122 26.7524H92.5982L87.0775 41.9192C86.2888 44.1032 85.2372 45.6806 83.9228 46.6513C82.6285 47.6422 81.0108 48.087 79.0694 47.9859V44.3459C80.121 44.3661 80.9501 44.1437 81.5568 43.6786C82.1837 43.2134 82.6791 42.4652 83.0431 41.4339L76.8247 26.7524H81.1018L85.0451 36.9445L88.4122 26.7524Z" fill="#1C1C1C"/>
<path d="M69.4798 42.344C67.1946 42.344 65.2836 41.5755 63.7467 40.0386C62.23 38.5017 61.4717 36.6008 61.4717 34.3359C61.4717 32.071 62.23 30.1701 63.7467 28.6332C65.2836 27.0963 67.1946 26.3278 69.4798 26.3278C70.956 26.3278 72.3008 26.6817 73.5141 27.3895C74.7275 28.0973 75.6476 29.0477 76.2745 30.2409L72.9075 32.2125C72.6041 31.5857 72.139 31.0902 71.5121 30.7262C70.9054 30.3622 70.2179 30.1802 69.4494 30.1802C68.2765 30.1802 67.3059 30.5745 66.5374 31.3632C65.7689 32.1317 65.3847 33.1226 65.3847 34.3359C65.3847 35.529 65.7689 36.5199 66.5374 37.3086C67.3059 38.0771 68.2765 38.4613 69.4494 38.4613C70.2381 38.4613 70.9358 38.2894 71.5425 37.9456C72.1694 37.5816 72.6345 37.0862 72.9378 36.4593L76.3352 38.4006C75.6678 39.5937 74.7275 40.5543 73.5141 41.2823C72.3008 41.9901 70.956 42.344 69.4798 42.344Z" fill="#1C1C1C"/>
<path d="M54.7651 41.9195V26.7527H58.6782V41.9195H54.7651Z" fill="#1C1C1C"/>
<path d="M19.0996 26.3278C21.142 26.3278 22.8811 27.1064 24.3169 28.6635C25.773 30.2004 26.501 32.0912 26.501 34.3359C26.501 36.5806 25.773 38.4815 24.3169 40.0386C22.8811 41.5755 21.142 42.344 19.0996 42.344C16.9762 42.344 15.3382 41.6059 14.1855 40.1296V47.986H10.2725V26.7525H14.1855V28.5422C15.3382 27.0659 16.9762 26.3278 19.0996 26.3278ZM15.3685 37.4299C16.1572 38.2186 17.1582 38.6129 18.3715 38.6129C19.5849 38.6129 20.5859 38.2186 21.3746 37.4299C22.1835 36.621 22.5879 35.5897 22.5879 34.3359C22.5879 33.0821 22.1835 32.0609 21.3746 31.2722C20.5859 30.4633 19.5849 30.0589 18.3715 30.0589C17.1582 30.0589 16.1572 30.4633 15.3685 31.2722C14.5798 32.0609 14.1855 33.0821 14.1855 34.3359C14.1855 35.5897 14.5798 36.621 15.3685 37.4299Z" fill="#1C1C1C"/>
<path d="M56.7169 24.8906C57.8469 24.8906 58.7629 23.9746 58.7629 22.8446H54.6709C54.6709 23.9746 55.5869 24.8906 56.7169 24.8906Z" fill="#0075FF"/>
<path fill-rule="evenodd" clip-rule="evenodd" d="M35.0772 26.3934C33.4127 26.646 31.9645 27.3894 30.7326 28.6236C29.2038 30.1553 28.4395 32.0396 28.4395 34.2766C28.4395 36.5136 29.2038 38.408 30.7326 39.9598C32.2814 41.4915 34.1723 42.2573 36.405 42.2573C38.6378 42.2573 40.5286 41.4915 42.0775 39.9598C43.6264 38.408 44.4008 36.5136 44.4008 34.2766C44.4008 33.4988 44.3072 32.7636 44.1199 32.071C43.9587 32.1857 43.7837 32.2861 43.596 32.3697C42.2633 32.9632 40.7301 32.511 39.916 31.3662C39.8938 31.3766 39.8714 31.3869 39.8489 31.3969C37.9971 32.2215 35.8274 31.3888 35.0027 29.5369C34.5368 28.4906 34.6 27.3428 35.0772 26.3934ZM33.3177 36.048C34.2705 35.6237 34.6989 34.5074 34.2746 33.5547C33.8504 32.6019 32.7341 32.1735 31.7814 32.5978C30.8286 33.022 30.4002 34.1383 30.8244 35.0911C31.2487 36.0438 32.365 36.4722 33.3177 36.048ZM41.4534 35.5704C41.7813 36.3069 41.4501 37.1698 40.7137 37.4978C39.9772 37.8257 39.1143 37.4945 38.7863 36.7581C38.4584 36.0216 38.7896 35.1587 39.526 34.8307C40.2625 34.5028 41.1254 34.834 41.4534 35.5704ZM36.2733 40.244C36.8315 39.9954 37.0825 39.3414 36.8339 38.7832C36.5854 38.225 35.9314 37.974 35.3732 38.2226C34.815 38.4711 34.564 39.1252 34.8125 39.6833C35.0611 40.2415 35.7151 40.4926 36.2733 40.244Z" fill="#0075FF"/>
</svg>
